<mxfile host="app.diagrams.net" modified="2023-11-21T23:03:41.017Z" agent="Mozilla/5.0 (Windows NT 10.0; Win64; x64; rv:91.0) Gecko/20100101 Firefox/91.0" etag="hPcANWg80SvXXIGFqwhi" version="22.1.3" type="github">
  <diagram name="PÃ¡gina-1" id="wJtltuoZoTGgqdT_OP7u">
    <mxGraphModel dx="1941" dy="1705" grid="1" gridSize="10" guides="1" tooltips="1" connect="1" arrows="1" fold="1" page="1" pageScale="1" pageWidth="827" pageHeight="1169" math="0" shadow="0">
      <root>
        <mxCell id="0" />
        <mxCell id="1" parent="0" />
        <mxCell id="GWzE49c85Pe6SGVg7AvQ-38" style="edgeStyle=orthogonalEdgeStyle;rounded=0;orthogonalLoop=1;jettySize=auto;html=1;endArrow=none;endFill=0;" parent="1" source="GWzE49c85Pe6SGVg7AvQ-1" target="GWzE49c85Pe6SGVg7AvQ-29" edge="1">
          <mxGeometry relative="1" as="geometry">
            <Array as="points">
              <mxPoint x="-121" y="182" />
            </Array>
          </mxGeometry>
        </mxCell>
        <mxCell id="GWzE49c85Pe6SGVg7AvQ-1" value="CHANNEL" style="strokeWidth=1;outlineConnect=0;dashed=0;align=left;html=1;fontSize=15;shape=mxgraph.eip.dataChannel;verticalLabelPosition=bottom;labelBackgroundColor=#ffffff;verticalAlign=top;gradientColor=default;gradientDirection=south;fillColor=default;labelPosition=right;fontStyle=1" parent="1" vertex="1">
          <mxGeometry x="-524" y="154.72" width="272.5" height="54.5" as="geometry" />
        </mxCell>
        <mxCell id="GWzE49c85Pe6SGVg7AvQ-4" value="S1" style="image;aspect=fixed;perimeter=ellipsePerimeter;html=1;align=center;shadow=0;dashed=0;fontColor=#000000;labelBackgroundColor=default;fontSize=15;spacingTop=3;image=img/lib/ibm/blockchain/smart_contract.svg;labelPosition=center;verticalLabelPosition=top;verticalAlign=bottom;fontStyle=1" parent="1" vertex="1">
          <mxGeometry x="-435.7" y="20" width="30" height="30" as="geometry" />
        </mxCell>
        <mxCell id="GWzE49c85Pe6SGVg7AvQ-9" value="&lt;div style=&quot;font-size: 15px;&quot;&gt;LEDGER1&lt;/div&gt;&lt;div style=&quot;font-size: 15px;&quot;&gt;&lt;br style=&quot;font-size: 15px;&quot;&gt;&lt;/div&gt;" style="shape=image;html=1;verticalAlign=top;verticalLabelPosition=bottom;labelBackgroundColor=#ffffff;imageAspect=0;aspect=fixed;image=https://cdn1.iconfinder.com/data/icons/100-basic-for-user-interface/32/81-book-128.png;fontSize=15;fontStyle=1" parent="1" vertex="1">
          <mxGeometry x="-435.7" y="60" width="30" height="30" as="geometry" />
        </mxCell>
        <mxCell id="GWzE49c85Pe6SGVg7AvQ-35" style="edgeStyle=orthogonalEdgeStyle;rounded=0;orthogonalLoop=1;jettySize=auto;html=1;entryX=0;entryY=0.5;entryDx=2.7;entryDy=0;entryPerimeter=0;endArrow=none;endFill=0;" parent="1" source="GWzE49c85Pe6SGVg7AvQ-10" target="GWzE49c85Pe6SGVg7AvQ-1" edge="1">
          <mxGeometry relative="1" as="geometry">
            <mxPoint x="-743" y="189.99999999999994" as="targetPoint" />
            <Array as="points">
              <mxPoint x="-743" y="182" />
            </Array>
          </mxGeometry>
        </mxCell>
        <mxCell id="GWzE49c85Pe6SGVg7AvQ-10" value="APP1" style="verticalLabelPosition=middle;html=1;verticalAlign=middle;strokeWidth=1;align=right;outlineConnect=0;dashed=0;outlineConnect=0;shape=mxgraph.aws3d.application2;fillColor=#3333FF;strokeColor=#99CCFF;aspect=fixed;labelPosition=left;fontSize=15;fontStyle=1" parent="1" vertex="1">
          <mxGeometry x="-774" y="74.5" width="62" height="53" as="geometry" />
        </mxCell>
        <mxCell id="GWzE49c85Pe6SGVg7AvQ-11" value="APP2" style="verticalLabelPosition=middle;html=1;verticalAlign=middle;strokeWidth=1;align=left;outlineConnect=0;dashed=0;outlineConnect=0;shape=mxgraph.aws3d.application2;fillColor=#66FF66;strokeColor=#CCFFCC;aspect=fixed;labelPosition=right;fontSize=15;fontStyle=1" parent="1" vertex="1">
          <mxGeometry x="-704" y="76" width="62" height="53" as="geometry" />
        </mxCell>
        <mxCell id="GWzE49c85Pe6SGVg7AvQ-15" value="CA2" style="sketch=0;outlineConnect=0;fillColor=#66FF66;strokeColor=#82b366;dashed=0;verticalLabelPosition=middle;verticalAlign=middle;align=left;html=1;fontSize=15;fontStyle=1;aspect=fixed;pointerEvents=1;shape=mxgraph.aws4.organizations_management_account2;rotation=0;labelPosition=right;" parent="1" vertex="1">
          <mxGeometry x="-654" y="300" width="50" height="50" as="geometry" />
        </mxCell>
        <mxCell id="GWzE49c85Pe6SGVg7AvQ-16" value="CA1" style="sketch=0;outlineConnect=0;fillColor=#3333FF;strokeColor=#9673a6;dashed=0;verticalLabelPosition=middle;verticalAlign=middle;align=right;html=1;fontSize=15;fontStyle=1;aspect=fixed;pointerEvents=1;shape=mxgraph.aws4.organizations_management_account2;rotation=0;labelPosition=left;" parent="1" vertex="1">
          <mxGeometry x="-714" y="300" width="50" height="50" as="geometry" />
        </mxCell>
        <mxCell id="GWzE49c85Pe6SGVg7AvQ-17" value="CA0" style="sketch=0;outlineConnect=0;dashed=0;verticalLabelPosition=middle;verticalAlign=middle;align=right;html=1;fontSize=15;fontStyle=1;aspect=fixed;pointerEvents=1;shape=mxgraph.aws4.organizations_management_account2;fillColor=#808080;strokeColor=#d79b00;rotation=0;labelPosition=left;" parent="1" vertex="1">
          <mxGeometry x="-714" y="240" width="50" height="50" as="geometry" />
        </mxCell>
        <mxCell id="GWzE49c85Pe6SGVg7AvQ-19" value="R2" style="triangle;whiteSpace=wrap;html=1;rotation=0;labelPosition=right;verticalLabelPosition=middle;align=left;verticalAlign=middle;fillColor=#66FF66;fontSize=15;fontStyle=1" parent="1" vertex="1">
          <mxGeometry x="-424" y="230" width="37.5" height="50" as="geometry" />
        </mxCell>
        <mxCell id="GWzE49c85Pe6SGVg7AvQ-20" value="R1" style="triangle;whiteSpace=wrap;html=1;rotation=0;fillColor=#3333FF;labelPosition=right;verticalLabelPosition=middle;align=left;verticalAlign=middle;textDirection=ltr;fontSize=15;fontStyle=1" parent="1" vertex="1">
          <mxGeometry x="-484" y="230" width="37.5" height="50" as="geometry" />
        </mxCell>
        <mxCell id="GWzE49c85Pe6SGVg7AvQ-27" value="PEER1" style="sketch=0;pointerEvents=1;shadow=0;dashed=0;html=1;strokeColor=none;fillColor=#3333FF;labelPosition=left;verticalLabelPosition=middle;verticalAlign=middle;outlineConnect=0;align=right;shape=mxgraph.office.concepts.node_generic;fontSize=15;fontStyle=1" parent="1" vertex="1">
          <mxGeometry x="-515.7" y="5.5" width="66" height="74.61" as="geometry" />
        </mxCell>
        <mxCell id="GWzE49c85Pe6SGVg7AvQ-29" value="ORDERER" style="sketch=0;pointerEvents=1;shadow=0;dashed=0;html=1;strokeColor=none;fillColor=#808080;labelPosition=center;verticalLabelPosition=top;verticalAlign=bottom;outlineConnect=0;align=center;shape=mxgraph.office.concepts.node_generic;fontSize=15;fontStyle=1" parent="1" vertex="1">
          <mxGeometry x="-154" y="80.11" width="66" height="74.61" as="geometry" />
        </mxCell>
        <mxCell id="GWzE49c85Pe6SGVg7AvQ-30" value="PEER2" style="sketch=0;pointerEvents=1;shadow=0;dashed=0;html=1;strokeColor=none;fillColor=#66FF66;labelPosition=left;verticalLabelPosition=middle;verticalAlign=middle;outlineConnect=0;align=right;shape=mxgraph.office.concepts.node_generic;fontSize=15;fontStyle=1" parent="1" vertex="1">
          <mxGeometry x="-324" y="5.5" width="66" height="74.61" as="geometry" />
        </mxCell>
        <mxCell id="GWzE49c85Pe6SGVg7AvQ-32" value="CC1" style="rounded=0;whiteSpace=wrap;html=1;fontSize=15;fontStyle=1" parent="1" vertex="1">
          <mxGeometry x="-484" y="280" width="160" height="60" as="geometry" />
        </mxCell>
        <mxCell id="GWzE49c85Pe6SGVg7AvQ-36" style="edgeStyle=orthogonalEdgeStyle;rounded=0;orthogonalLoop=1;jettySize=auto;html=1;entryX=0;entryY=0.5;entryDx=2.7;entryDy=0;entryPerimeter=0;endArrow=none;endFill=0;" parent="1" source="GWzE49c85Pe6SGVg7AvQ-11" target="GWzE49c85Pe6SGVg7AvQ-1" edge="1">
          <mxGeometry relative="1" as="geometry">
            <Array as="points">
              <mxPoint x="-673" y="182" />
            </Array>
          </mxGeometry>
        </mxCell>
        <mxCell id="GWzE49c85Pe6SGVg7AvQ-40" style="edgeStyle=orthogonalEdgeStyle;rounded=0;orthogonalLoop=1;jettySize=auto;html=1;entryX=0;entryY=0;entryDx=40;entryDy=0;entryPerimeter=0;endArrow=none;endFill=0;" parent="1" source="GWzE49c85Pe6SGVg7AvQ-27" target="GWzE49c85Pe6SGVg7AvQ-1" edge="1">
          <mxGeometry relative="1" as="geometry">
            <Array as="points">
              <mxPoint x="-484" y="100" />
              <mxPoint x="-484" y="100" />
            </Array>
          </mxGeometry>
        </mxCell>
        <mxCell id="GWzE49c85Pe6SGVg7AvQ-42" style="edgeStyle=orthogonalEdgeStyle;rounded=0;orthogonalLoop=1;jettySize=auto;html=1;exitX=0;exitY=0.5;exitDx=0;exitDy=0;entryX=0;entryY=1;entryDx=10;entryDy=0;entryPerimeter=0;endArrow=none;endFill=0;dashed=1;" parent="1" source="GWzE49c85Pe6SGVg7AvQ-32" target="GWzE49c85Pe6SGVg7AvQ-1" edge="1">
          <mxGeometry relative="1" as="geometry">
            <Array as="points">
              <mxPoint x="-514" y="310" />
            </Array>
          </mxGeometry>
        </mxCell>
        <mxCell id="GWzE49c85Pe6SGVg7AvQ-44" style="edgeStyle=orthogonalEdgeStyle;rounded=0;orthogonalLoop=1;jettySize=auto;html=1;entryX=0;entryY=0;entryDx=230;entryDy=0;entryPerimeter=0;endArrow=none;endFill=0;" parent="1" source="GWzE49c85Pe6SGVg7AvQ-30" target="GWzE49c85Pe6SGVg7AvQ-1" edge="1">
          <mxGeometry relative="1" as="geometry">
            <Array as="points">
              <mxPoint x="-294" y="110" />
              <mxPoint x="-294" y="110" />
            </Array>
          </mxGeometry>
        </mxCell>
        <mxCell id="GWzE49c85Pe6SGVg7AvQ-47" value="S2" style="image;aspect=fixed;perimeter=ellipsePerimeter;html=1;align=center;shadow=0;dashed=0;fontColor=#000000;labelBackgroundColor=default;fontSize=15;spacingTop=3;image=img/lib/ibm/blockchain/smart_contract.svg;labelPosition=center;verticalLabelPosition=top;verticalAlign=bottom;fontStyle=1" parent="1" vertex="1">
          <mxGeometry x="-251.5" y="20" width="30" height="30" as="geometry" />
        </mxCell>
        <mxCell id="GWzE49c85Pe6SGVg7AvQ-48" value="&lt;div style=&quot;font-size: 15px;&quot;&gt;LEDGER2&lt;/div&gt;&lt;div style=&quot;font-size: 15px;&quot;&gt;&lt;br style=&quot;font-size: 15px;&quot;&gt;&lt;/div&gt;" style="shape=image;html=1;verticalAlign=top;verticalLabelPosition=bottom;labelBackgroundColor=#ffffff;imageAspect=0;aspect=fixed;image=https://cdn1.iconfinder.com/data/icons/100-basic-for-user-interface/32/81-book-128.png;fontSize=15;fontStyle=1" parent="1" vertex="1">
          <mxGeometry x="-251.5" y="60" width="30" height="30" as="geometry" />
        </mxCell>
        <mxCell id="GWzE49c85Pe6SGVg7AvQ-51" value="&lt;div style=&quot;font-size: 15px;&quot;&gt;LEDGER3&lt;/div&gt;&lt;div style=&quot;font-size: 15px;&quot;&gt;&lt;br style=&quot;font-size: 15px;&quot;&gt;&lt;/div&gt;" style="shape=image;html=1;verticalAlign=top;verticalLabelPosition=bottom;labelBackgroundColor=#ffffff;imageAspect=0;aspect=fixed;image=https://cdn1.iconfinder.com/data/icons/100-basic-for-user-interface/32/81-book-128.png;fontSize=15;fontStyle=1" parent="1" vertex="1">
          <mxGeometry x="-84" y="120" width="30" height="30" as="geometry" />
        </mxCell>
        <mxCell id="AybvFKT6ETd5waIF59tl-1" value="RO" style="triangle;whiteSpace=wrap;html=1;rotation=0;labelPosition=right;verticalLabelPosition=middle;align=left;verticalAlign=middle;fillColor=#808080;fontSize=15;fontStyle=1" vertex="1" parent="1">
          <mxGeometry x="-361.5" y="230" width="37.5" height="50" as="geometry" />
        </mxCell>
      </root>
    </mxGraphModel>
  </diagram>
</mxfile>
